<svg width="1748" height="1710" viewBox="0 0 1748 271" fill="none" xmlns="http://www.w3.org/2000/svg">
<g clip-path="url(#clip0_24_2)">
<mask id="path-1-outside-1_24_2" maskUnits="userSpaceOnUse" x="66" y="86" width="1601" height="178" fill="black">
<rect fill="white" x="66" y="86" width="1601" height="178"/>
<path d="M274.295 175.476C274.295 187.601 272.342 198.994 268.436 209.655C264.611 220.316 259.158 229.593 252.078 237.487C244.998 245.381 236.494 251.607 226.565 256.164C216.718 260.721 205.773 263 193.729 263H105.472V237.976H193.729C202.355 237.976 210.086 236.348 216.922 233.093C223.839 229.838 229.658 225.402 234.378 219.787C239.179 214.09 242.841 207.458 245.364 199.89C247.968 192.24 249.271 184.102 249.271 175.476C249.271 166.849 247.968 158.752 245.364 151.184C242.841 143.615 239.179 137.023 234.378 131.408C229.658 125.712 223.839 121.236 216.922 117.98C210.086 114.644 202.355 112.976 193.729 112.976H93.0205V263H67.9961V87.9512H193.729C205.773 87.9512 216.718 90.2705 226.565 94.9092C236.494 99.4665 244.998 105.733 252.078 113.708C259.158 121.602 264.611 130.879 268.436 141.54C272.342 152.119 274.295 163.431 274.295 175.476ZM505.252 263H480.228V212.951H340.579V188.049H480.228V112.976H390.506C381.961 112.976 373.904 114.644 366.336 117.98C358.768 121.236 352.176 125.712 346.561 131.408C340.945 137.023 336.469 143.615 333.133 151.184C329.878 158.752 328.25 166.849 328.25 175.476V263H303.226V175.476C303.226 167.419 304.243 159.688 306.277 152.282C308.393 144.795 311.323 137.837 315.066 131.408C318.891 124.898 323.449 118.998 328.738 113.708C334.109 108.337 340.009 103.739 346.438 99.9141C352.949 96.0892 359.907 93.1595 367.312 91.125C374.718 89.0091 382.449 87.9512 390.506 87.9512H505.252V263ZM572.269 263H547.244V87.9512H559.695C567.833 87.9512 576.46 89.0091 585.574 91.125C594.77 93.2409 604.129 96.2926 613.65 100.28C623.172 104.268 632.653 109.11 642.093 114.807C651.614 120.422 660.81 126.81 669.681 133.972C678.551 141.133 686.893 148.946 694.705 157.409C702.518 165.791 709.516 174.743 715.701 184.265V87.9512H740.726V263H715.701C715.701 250.142 713.463 237.772 708.987 225.891C704.511 213.928 698.53 202.657 691.043 192.077C683.556 181.498 674.93 171.773 665.164 162.902C655.398 153.951 645.185 146.097 634.524 139.343C623.945 132.588 613.284 127.054 602.542 122.741C591.8 118.347 581.709 115.417 572.269 113.952V263ZM807.864 263H782.84V87.9512H807.864V263ZM944.949 263H919.925V112.976H831.424V87.9512H1033.45V112.976H944.949V263ZM1238.04 263H1057.01V87.9512H1238.04V112.976H1082.03V237.976H1238.04V263ZM1216.8 188.049H1094.49V163.024H1216.8V188.049ZM1450.69 263H1338.02C1325.89 263 1314.86 260.721 1304.93 256.164C1295.01 251.607 1286.5 245.381 1279.42 237.487C1272.42 229.593 1267.01 220.316 1263.19 209.655C1259.36 198.994 1257.45 187.601 1257.45 175.476C1257.45 163.431 1259.36 152.119 1263.19 141.54C1267.01 130.879 1272.42 121.602 1279.42 113.708C1286.5 105.733 1295.01 99.4665 1304.93 94.9092C1314.86 90.2705 1325.89 87.9512 1338.02 87.9512H1450.69V112.976H1338.02C1329.39 112.976 1321.62 114.644 1314.7 117.98C1307.86 121.236 1302.05 125.712 1297.24 131.408C1292.52 137.023 1288.86 143.615 1286.26 151.184C1283.74 158.752 1282.47 166.849 1282.47 175.476C1282.47 184.102 1283.74 192.24 1286.26 199.89C1288.86 207.458 1292.52 214.09 1297.24 219.787C1302.05 225.402 1307.86 229.838 1314.7 233.093C1321.62 236.348 1329.39 237.976 1338.02 237.976H1450.69V263ZM1665.9 263H1640.87V188.049H1518.56V163.024H1640.87V87.9512H1665.9V263ZM1506.11 263H1481.08V87.9512H1506.11V263Z"/>
</mask>
<path d="M274.295 175.476C274.295 187.601 272.342 198.994 268.436 209.655C264.611 220.316 259.158 229.593 252.078 237.487C244.998 245.381 236.494 251.607 226.565 256.164C216.718 260.721 205.773 263 193.729 263H105.472V237.976H193.729C202.355 237.976 210.086 236.348 216.922 233.093C223.839 229.838 229.658 225.402 234.378 219.787C239.179 214.09 242.841 207.458 245.364 199.89C247.968 192.24 249.271 184.102 249.271 175.476C249.271 166.849 247.968 158.752 245.364 151.184C242.841 143.615 239.179 137.023 234.378 131.408C229.658 125.712 223.839 121.236 216.922 117.98C210.086 114.644 202.355 112.976 193.729 112.976H93.0205V263H67.9961V87.9512H193.729C205.773 87.9512 216.718 90.2705 226.565 94.9092C236.494 99.4665 244.998 105.733 252.078 113.708C259.158 121.602 264.611 130.879 268.436 141.54C272.342 152.119 274.295 163.431 274.295 175.476ZM505.252 263H480.228V212.951H340.579V188.049H480.228V112.976H390.506C381.961 112.976 373.904 114.644 366.336 117.98C358.768 121.236 352.176 125.712 346.561 131.408C340.945 137.023 336.469 143.615 333.133 151.184C329.878 158.752 328.25 166.849 328.25 175.476V263H303.226V175.476C303.226 167.419 304.243 159.688 306.277 152.282C308.393 144.795 311.323 137.837 315.066 131.408C318.891 124.898 323.449 118.998 328.738 113.708C334.109 108.337 340.009 103.739 346.438 99.9141C352.949 96.0892 359.907 93.1595 367.312 91.125C374.718 89.0091 382.449 87.9512 390.506 87.9512H505.252V263ZM572.269 263H547.244V87.9512H559.695C567.833 87.9512 576.46 89.0091 585.574 91.125C594.77 93.2409 604.129 96.2926 613.65 100.28C623.172 104.268 632.653 109.11 642.093 114.807C651.614 120.422 660.81 126.81 669.681 133.972C678.551 141.133 686.893 148.946 694.705 157.409C702.518 165.791 709.516 174.743 715.701 184.265V87.9512H740.726V263H715.701C715.701 250.142 713.463 237.772 708.987 225.891C704.511 213.928 698.53 202.657 691.043 192.077C683.556 181.498 674.93 171.773 665.164 162.902C655.398 153.951 645.185 146.097 634.524 139.343C623.945 132.588 613.284 127.054 602.542 122.741C591.8 118.347 581.709 115.417 572.269 113.952V263ZM807.864 263H782.84V87.9512H807.864V263ZM944.949 263H919.925V112.976H831.424V87.9512H1033.45V112.976H944.949V263ZM1238.04 263H1057.01V87.9512H1238.04V112.976H1082.03V237.976H1238.04V263ZM1216.8 188.049H1094.49V163.024H1216.8V188.049ZM1450.69 263H1338.02C1325.89 263 1314.86 260.721 1304.93 256.164C1295.01 251.607 1286.5 245.381 1279.42 237.487C1272.42 229.593 1267.01 220.316 1263.19 209.655C1259.36 198.994 1257.45 187.601 1257.45 175.476C1257.45 163.431 1259.36 152.119 1263.19 141.54C1267.01 130.879 1272.42 121.602 1279.42 113.708C1286.5 105.733 1295.01 99.4665 1304.93 94.9092C1314.86 90.2705 1325.89 87.9512 1338.02 87.9512H1450.69V112.976H1338.02C1329.39 112.976 1321.62 114.644 1314.7 117.98C1307.86 121.236 1302.05 125.712 1297.24 131.408C1292.52 137.023 1288.86 143.615 1286.26 151.184C1283.74 158.752 1282.47 166.849 1282.47 175.476C1282.47 184.102 1283.74 192.24 1286.26 199.89C1288.86 207.458 1292.52 214.09 1297.24 219.787C1302.05 225.402 1307.86 229.838 1314.7 233.093C1321.62 236.348 1329.39 237.976 1338.02 237.976H1450.69V263ZM1665.9 263H1640.87V188.049H1518.56V163.024H1640.87V87.9512H1665.9V263ZM1506.11 263H1481.08V87.9512H1506.11V263Z" fill="white"/>
<path d="M268.436 209.655L267.497 209.311L267.494 209.318L268.436 209.655ZM226.565 256.164L226.148 255.255L226.145 255.257L226.565 256.164ZM105.472 263H104.472V264H105.472V263ZM105.472 237.976V236.976H104.472V237.976H105.472ZM216.922 233.093L216.496 232.188L216.492 232.19L216.922 233.093ZM234.378 219.787L233.613 219.143L233.612 219.144L234.378 219.787ZM245.364 199.89L244.418 199.567L244.416 199.573L245.364 199.89ZM245.364 151.184L244.416 151.5L244.419 151.509L245.364 151.184ZM234.378 131.408L233.608 132.046L233.613 132.052L233.618 132.058L234.378 131.408ZM216.922 117.98L216.483 118.879L216.49 118.882L216.496 118.885L216.922 117.98ZM93.0205 112.976V111.976H92.0205V112.976H93.0205ZM93.0205 263V264H94.0205V263H93.0205ZM67.9961 263H66.9961V264H67.9961V263ZM67.9961 87.9512V86.9512H66.9961V87.9512H67.9961ZM226.565 94.9092L226.139 95.8139L226.148 95.818L226.565 94.9092ZM252.078 113.708L251.33 114.372L251.334 114.376L252.078 113.708ZM268.436 141.54L267.494 141.878L267.497 141.886L268.436 141.54ZM273.295 175.476C273.295 187.492 271.36 198.768 267.497 209.311L269.375 209.999C273.324 199.221 275.295 187.711 275.295 175.476H273.295ZM267.494 209.318C263.71 219.865 258.322 229.028 251.334 236.82L252.823 238.155C259.995 230.158 265.511 220.767 269.377 209.993L267.494 209.318ZM251.334 236.82C244.348 244.608 235.956 250.753 226.148 255.255L226.983 257.073C237.032 252.46 245.648 246.154 252.823 238.155L251.334 236.82ZM226.145 255.257C216.444 259.746 205.644 262 193.729 262V264C205.902 264 216.993 261.696 226.985 257.072L226.145 255.257ZM193.729 262H105.472V264H193.729V262ZM106.472 263V237.976H104.472V263H106.472ZM105.472 238.976H193.729V236.976H105.472V238.976ZM193.729 238.976C202.483 238.976 210.364 237.323 217.352 233.996L216.492 232.19C209.808 235.373 202.227 236.976 193.729 236.976V238.976ZM217.348 233.998C224.39 230.683 230.326 226.161 235.143 220.431L233.612 219.144C228.989 224.644 223.288 228.992 216.496 232.188L217.348 233.998ZM235.143 220.432C240.031 214.632 243.753 207.886 246.313 200.206L244.416 199.573C241.93 207.03 238.328 213.549 233.613 219.143L235.143 220.432ZM246.311 200.212C248.953 192.452 250.271 184.204 250.271 175.476H248.271C248.271 184 246.984 192.028 244.418 199.567L246.311 200.212ZM250.271 175.476C250.271 166.747 248.953 158.539 246.31 150.858L244.419 151.509C246.984 158.965 248.271 166.951 248.271 175.476H250.271ZM246.313 150.867C243.753 143.187 240.03 136.479 235.138 130.758L233.618 132.058C238.329 137.568 241.93 144.044 244.416 151.5L246.313 150.867ZM235.148 130.77C230.331 124.957 224.393 120.391 217.348 117.076L216.496 118.885C223.285 122.08 228.985 126.467 233.608 132.046L235.148 130.77ZM217.361 117.082C210.371 113.67 202.486 111.976 193.729 111.976V113.976C202.223 113.976 209.801 115.618 216.483 118.879L217.361 117.082ZM193.729 111.976H93.0205V113.976H193.729V111.976ZM92.0205 112.976V263H94.0205V112.976H92.0205ZM93.0205 262H67.9961V264H93.0205V262ZM68.9961 263V87.9512H66.9961V263H68.9961ZM67.9961 88.9512H193.729V86.9512H67.9961V88.9512ZM193.729 88.9512C205.641 88.9512 216.439 91.2444 226.139 95.8138L226.992 94.0045C216.998 89.2966 205.904 86.9512 193.729 86.9512V88.9512ZM226.148 95.818C235.954 100.319 244.345 106.503 251.33 114.372L252.826 113.044C245.652 104.963 237.034 98.614 226.983 94.0004L226.148 95.818ZM251.334 114.376C258.322 122.167 263.71 131.33 267.494 141.878L269.377 141.202C265.511 130.428 259.995 121.037 252.823 113.04L251.334 114.376ZM267.497 141.886C271.36 152.348 273.295 163.541 273.295 175.476H275.295C275.295 163.321 273.324 151.891 269.374 141.194L267.497 141.886ZM505.252 263V264H506.252V263H505.252ZM480.228 263H479.228V264H480.228V263ZM480.228 212.951H481.228V211.951H480.228V212.951ZM340.579 212.951H339.579V213.951H340.579V212.951ZM340.579 188.049V187.049H339.579V188.049H340.579ZM480.228 188.049V189.049H481.228V188.049H480.228ZM480.228 112.976H481.228V111.976H480.228V112.976ZM366.336 117.98L366.731 118.899L366.739 118.895L366.336 117.98ZM346.561 131.408L347.268 132.115L347.273 132.11L346.561 131.408ZM333.133 151.184L332.218 150.78L332.214 150.788L333.133 151.184ZM328.25 263V264H329.25V263H328.25ZM303.226 263H302.226V264H303.226V263ZM306.277 152.282L305.315 152.01L305.313 152.017L306.277 152.282ZM315.066 131.408L314.204 130.902L314.202 130.905L315.066 131.408ZM346.438 99.9141L345.932 99.0518L345.927 99.0547L346.438 99.9141ZM367.312 91.125L367.577 92.0893L367.587 92.0865L367.312 91.125ZM505.252 87.9512H506.252V86.9512H505.252V87.9512ZM505.252 262H480.228V264H505.252V262ZM481.228 263V212.951H479.228V263H481.228ZM480.228 211.951H340.579V213.951H480.228V211.951ZM341.579 212.951V188.049H339.579V212.951H341.579ZM340.579 189.049H480.228V187.049H340.579V189.049ZM481.228 188.049V112.976H479.228V188.049H481.228ZM480.228 111.976H390.506V113.976H480.228V111.976ZM390.506 111.976C381.827 111.976 373.632 113.671 365.933 117.065L366.739 118.895C374.176 115.617 382.095 113.976 390.506 113.976V111.976ZM365.941 117.062C358.257 120.367 351.557 124.915 345.848 130.706L347.273 132.11C352.795 126.508 359.278 122.105 366.731 118.899L365.941 117.062ZM345.853 130.701C340.147 136.407 335.602 143.103 332.218 150.78L334.048 151.587C337.337 144.127 341.744 137.639 347.268 132.115L345.853 130.701ZM332.214 150.788C328.903 158.488 327.25 166.72 327.25 175.476H329.25C329.25 166.979 330.852 159.016 334.051 151.579L332.214 150.788ZM327.25 175.476V263H329.25V175.476H327.25ZM328.25 262H303.226V264H328.25V262ZM304.226 263V175.476H302.226V263H304.226ZM304.226 175.476C304.226 167.504 305.232 159.862 307.242 152.547L305.313 152.017C303.254 159.513 302.226 167.334 302.226 175.476H304.226ZM307.24 152.554C309.334 145.144 312.231 138.265 315.931 131.911L314.202 130.905C310.415 137.41 307.453 144.446 305.315 152.01L307.24 152.554ZM315.929 131.915C319.711 125.477 324.216 119.644 329.445 114.415L328.031 113.001C322.681 118.351 318.072 124.319 314.204 130.902L315.929 131.915ZM329.445 114.415C334.759 109.102 340.593 104.555 346.95 100.773L345.927 99.0547C339.426 102.923 333.46 107.572 328.031 113.001L329.445 114.415ZM346.945 100.776C353.378 96.9966 360.255 94.1009 367.577 92.0893L367.048 90.1607C359.559 92.2181 352.519 95.1817 345.932 99.0519L346.945 100.776ZM367.587 92.0865C374.899 89.9973 382.538 88.9512 390.506 88.9512V86.9512C382.361 86.9512 374.537 88.0209 367.038 90.1635L367.587 92.0865ZM390.506 88.9512H505.252V86.9512H390.506V88.9512ZM504.252 87.9512V263H506.252V87.9512H504.252ZM572.269 263V264H573.269V263H572.269ZM547.244 263H546.244V264H547.244V263ZM547.244 87.9512V86.9512H546.244V87.9512H547.244ZM585.574 91.125L585.348 92.0991L585.35 92.0995L585.574 91.125ZM642.093 114.807L641.576 115.663L641.585 115.668L642.093 114.807ZM669.681 133.972L669.052 134.75L669.681 133.972ZM694.705 157.409L693.97 158.087L693.974 158.091L694.705 157.409ZM715.701 184.265L714.863 184.809L716.701 187.64V184.265H715.701ZM715.701 87.9512V86.9512H714.701V87.9512H715.701ZM740.726 87.9512H741.726V86.9512H740.726V87.9512ZM740.726 263V264H741.726V263H740.726ZM715.701 263H714.701V264H715.701V263ZM708.987 225.891L708.051 226.241L708.052 226.243L708.987 225.891ZM665.164 162.902L664.488 163.64L664.492 163.643L665.164 162.902ZM634.524 139.343L633.986 140.186L633.989 140.187L634.524 139.343ZM602.542 122.741L602.163 123.667L602.169 123.669L602.542 122.741ZM572.269 113.952L572.422 112.964L571.269 112.785V113.952H572.269ZM572.269 262H547.244V264H572.269V262ZM548.244 263V87.9512H546.244V263H548.244ZM547.244 88.9512H559.695V86.9512H547.244V88.9512ZM559.695 88.9512C567.747 88.9512 576.297 89.9979 585.348 92.0991L585.8 90.1509C576.622 88.0203 567.92 86.9512 559.695 86.9512V88.9512ZM585.35 92.0995C594.486 94.2015 603.79 97.235 613.264 101.203L614.037 99.3579C604.468 95.3503 595.055 92.2802 585.798 90.1505L585.35 92.0995ZM613.264 101.203C622.738 105.17 632.175 109.99 641.576 115.663L642.609 113.95C633.13 108.23 623.606 103.366 614.037 99.3579L613.264 101.203ZM641.585 115.668C651.063 121.258 660.219 127.618 669.052 134.75L670.309 133.194C661.402 126.002 652.166 119.586 642.601 113.945L641.585 115.668ZM669.052 134.75C677.885 141.88 686.19 149.659 693.97 158.087L695.44 156.731C687.595 148.232 679.218 140.386 670.309 133.194L669.052 134.75ZM693.974 158.091C701.747 166.431 708.71 175.337 714.863 184.809L716.54 183.72C710.323 174.149 703.288 165.152 695.437 156.727L693.974 158.091ZM716.701 184.265V87.9512H714.701V184.265H716.701ZM715.701 88.9512H740.726V86.9512H715.701V88.9512ZM739.726 87.9512V263H741.726V87.9512H739.726ZM740.726 262H715.701V264H740.726V262ZM716.701 263C716.701 250.023 714.442 237.534 709.923 225.538L708.052 226.243C712.484 238.011 714.701 250.261 714.701 263H716.701ZM709.924 225.54C705.417 213.496 699.395 202.148 691.859 191.499L690.227 192.655C697.665 203.165 703.605 214.36 708.051 226.241L709.924 225.54ZM691.859 191.499C684.33 180.86 675.655 171.08 665.836 162.162L664.492 163.643C674.205 172.465 682.782 182.136 690.227 192.655L691.859 191.499ZM665.84 162.165C656.033 153.175 645.773 145.286 635.06 138.498L633.989 140.187C644.598 146.909 654.764 154.726 664.488 163.639L665.84 162.165ZM635.063 138.5C624.435 131.715 613.719 126.151 602.915 121.813L602.169 123.669C612.849 127.957 623.455 133.462 633.986 140.186L635.063 138.5ZM602.921 121.816C592.121 117.398 581.954 114.443 572.422 112.964L572.115 114.94C581.464 116.391 591.479 119.296 602.163 123.667L602.921 121.816ZM571.269 113.952V263H573.269V113.952H571.269ZM807.864 263V264H808.864V263H807.864ZM782.84 263H781.84V264H782.84V263ZM782.84 87.9512V86.9512H781.84V87.9512H782.84ZM807.864 87.9512H808.864V86.9512H807.864V87.9512ZM807.864 262H782.84V264H807.864V262ZM783.84 263V87.9512H781.84V263H783.84ZM782.84 88.9512H807.864V86.9512H782.84V88.9512ZM806.864 87.9512V263H808.864V87.9512H806.864ZM944.949 263V264H945.949V263H944.949ZM919.925 263H918.925V264H919.925V263ZM919.925 112.976H920.925V111.976H919.925V112.976ZM831.424 112.976H830.424V113.976H831.424V112.976ZM831.424 87.9512V86.9512H830.424V87.9512H831.424ZM1033.45 87.9512H1034.45V86.9512H1033.45V87.9512ZM1033.45 112.976V113.976H1034.45V112.976H1033.45ZM944.949 112.976V111.976H943.949V112.976H944.949ZM944.949 262H919.925V264H944.949V262ZM920.925 263V112.976H918.925V263H920.925ZM919.925 111.976H831.424V113.976H919.925V111.976ZM832.424 112.976V87.9512H830.424V112.976H832.424ZM831.424 88.9512H1033.45V86.9512H831.424V88.9512ZM1032.45 87.9512V112.976H1034.45V87.9512H1032.45ZM1033.45 111.976H944.949V113.976H1033.45V111.976ZM943.949 112.976V263H945.949V112.976H943.949ZM1238.04 263V264H1239.04V263H1238.04ZM1057.01 263H1056.01V264H1057.01V263ZM1057.01 87.9512V86.9512H1056.01V87.9512H1057.01ZM1238.04 87.9512H1239.04V86.9512H1238.04V87.9512ZM1238.04 112.976V113.976H1239.04V112.976H1238.04ZM1082.03 112.976V111.976H1081.03V112.976H1082.03ZM1082.03 237.976H1081.03V238.976H1082.03V237.976ZM1238.04 237.976H1239.04V236.976H1238.04V237.976ZM1216.8 188.049V189.049H1217.8V188.049H1216.8ZM1094.49 188.049H1093.49V189.049H1094.49V188.049ZM1094.49 163.024V162.024H1093.49V163.024H1094.49ZM1216.8 163.024H1217.8V162.024H1216.8V163.024ZM1238.04 262H1057.01V264H1238.04V262ZM1058.01 263V87.9512H1056.01V263H1058.01ZM1057.01 88.9512H1238.04V86.9512H1057.01V88.9512ZM1237.04 87.9512V112.976H1239.04V87.9512H1237.04ZM1238.04 111.976H1082.03V113.976H1238.04V111.976ZM1081.03 112.976V237.976H1083.03V112.976H1081.03ZM1082.03 238.976H1238.04V236.976H1082.03V238.976ZM1237.04 237.976V263H1239.04V237.976H1237.04ZM1216.8 187.049H1094.49V189.049H1216.8V187.049ZM1095.49 188.049V163.024H1093.49V188.049H1095.49ZM1094.49 164.024H1216.8V162.024H1094.49V164.024ZM1215.8 163.024V188.049H1217.8V163.024H1215.8ZM1450.69 263V264H1451.69V263H1450.69ZM1304.93 256.164L1304.52 257.073L1304.93 256.164ZM1279.42 237.487L1278.67 238.151L1278.68 238.155L1279.42 237.487ZM1263.19 209.655L1262.25 209.993L1263.19 209.655ZM1263.19 141.54L1264.13 141.88L1264.13 141.878L1263.19 141.54ZM1279.42 113.708L1278.67 113.044L1278.67 113.045L1279.42 113.708ZM1304.93 94.9092L1305.35 95.818L1305.36 95.8152L1304.93 94.9092ZM1450.69 87.9512H1451.69V86.9512H1450.69V87.9512ZM1450.69 112.976V113.976H1451.69V112.976H1450.69ZM1314.7 117.98L1315.13 118.883L1315.13 118.881L1314.7 117.98ZM1297.24 131.408L1296.48 130.764L1296.48 130.765L1297.24 131.408ZM1286.26 151.184L1285.31 150.858L1285.31 150.867L1286.26 151.184ZM1286.26 199.89L1285.31 200.203L1285.31 200.215L1286.26 199.89ZM1297.24 219.787L1296.47 220.425L1296.48 220.431L1296.48 220.437L1297.24 219.787ZM1314.7 233.093L1314.27 233.996L1314.27 233.998L1314.7 233.093ZM1450.69 237.976H1451.69V236.976H1450.69V237.976ZM1450.69 262H1338.02V264H1450.69V262ZM1338.02 262C1326.02 262 1315.14 259.746 1305.35 255.255L1304.52 257.073C1314.59 261.697 1325.76 264 1338.02 264V262ZM1305.35 255.255C1295.54 250.753 1287.15 244.608 1280.17 236.82L1278.68 238.155C1285.85 246.154 1294.47 252.46 1304.52 257.073L1305.35 255.255ZM1280.17 236.824C1273.26 229.032 1267.91 219.867 1264.13 209.318L1262.25 209.993C1266.11 220.765 1271.58 230.155 1278.67 238.151L1280.17 236.824ZM1264.13 209.318C1260.34 198.773 1258.45 187.494 1258.45 175.476H1256.45C1256.45 187.708 1258.38 199.216 1262.25 209.993L1264.13 209.318ZM1258.45 175.476C1258.45 163.539 1260.34 152.343 1264.13 141.88L1262.25 141.2C1258.38 151.896 1256.45 163.324 1256.45 175.476H1258.45ZM1264.13 141.878C1267.91 131.328 1273.26 122.163 1280.17 114.371L1278.67 113.045C1271.58 121.041 1266.11 130.431 1262.25 141.202L1264.13 141.878ZM1280.17 114.372C1287.16 106.503 1295.55 100.319 1305.35 95.818L1304.52 94.0004C1294.47 98.614 1285.85 104.963 1278.67 113.044L1280.17 114.372ZM1305.36 95.8152C1315.14 91.2447 1326.02 88.9512 1338.02 88.9512V86.9512C1325.76 86.9512 1314.59 89.2963 1304.51 94.0032L1305.36 95.8152ZM1338.02 88.9512H1450.69V86.9512H1338.02V88.9512ZM1449.69 87.9512V112.976H1451.69V87.9512H1449.69ZM1450.69 111.976H1338.02V113.976H1450.69V111.976ZM1338.02 111.976C1329.26 111.976 1321.33 113.67 1314.27 117.08L1315.13 118.881C1321.9 115.618 1329.52 113.976 1338.02 113.976V111.976ZM1314.27 117.078C1307.31 120.393 1301.37 124.956 1296.48 130.764L1298.01 132.053C1302.72 126.467 1308.42 122.078 1315.13 118.883L1314.27 117.078ZM1296.48 130.765C1291.67 136.482 1287.95 143.184 1285.31 150.858L1287.2 151.509C1289.77 144.046 1293.38 137.565 1298.01 132.052L1296.48 130.765ZM1285.31 150.867C1282.75 158.546 1281.47 166.751 1281.47 175.476H1283.47C1283.47 166.948 1284.72 158.958 1287.21 151.5L1285.31 150.867ZM1281.47 175.476C1281.47 184.201 1282.75 192.445 1285.31 200.203L1287.21 199.576C1284.72 192.035 1283.47 184.003 1283.47 175.476H1281.47ZM1285.31 200.215C1287.95 207.888 1291.67 214.628 1296.47 220.425L1298.01 219.149C1293.38 213.553 1289.77 207.028 1287.2 199.564L1285.31 200.215ZM1296.48 220.437C1301.38 226.161 1307.31 230.682 1314.27 233.996L1315.13 232.19C1308.42 228.993 1302.71 224.643 1298 219.137L1296.48 220.437ZM1314.27 233.998C1321.34 237.323 1329.26 238.976 1338.02 238.976V236.976C1329.52 236.976 1321.89 235.373 1315.13 232.188L1314.27 233.998ZM1338.02 238.976H1450.69V236.976H1338.02V238.976ZM1449.69 237.976V263H1451.69V237.976H1449.69ZM1665.9 263V264H1666.9V263H1665.9ZM1640.87 263H1639.87V264H1640.87V263ZM1640.87 188.049H1641.87V187.049H1640.87V188.049ZM1518.56 188.049H1517.56V189.049H1518.56V188.049ZM1518.56 163.024V162.024H1517.56V163.024H1518.56ZM1640.87 163.024V164.024H1641.87V163.024H1640.87ZM1640.87 87.9512V86.9512H1639.87V87.9512H1640.87ZM1665.9 87.9512H1666.9V86.9512H1665.9V87.9512ZM1506.11 263V264H1507.11V263H1506.11ZM1481.08 263H1480.08V264H1481.08V263ZM1481.08 87.9512V86.9512H1480.08V87.9512H1481.08ZM1506.11 87.9512H1507.11V86.9512H1506.11V87.9512ZM1665.9 262H1640.87V264H1665.9V262ZM1641.87 263V188.049H1639.87V263H1641.87ZM1640.87 187.049H1518.56V189.049H1640.87V187.049ZM1519.56 188.049V163.024H1517.56V188.049H1519.56ZM1518.56 164.024H1640.87V162.024H1518.56V164.024ZM1641.87 163.024V87.9512H1639.87V163.024H1641.87ZM1640.87 88.9512H1665.9V86.9512H1640.87V88.9512ZM1664.9 87.9512V263H1666.9V87.9512H1664.9ZM1506.11 262H1481.08V264H1506.11V262ZM1482.08 263V87.9512H1480.08V263H1482.08ZM1481.08 88.9512H1506.11V86.9512H1481.08V88.9512ZM1505.11 87.9512V263H1507.11V87.9512H1505.11Z" fill="white" mask="url(#path-1-outside-1_24_2)"/>
</g>
<defs>
<clipPath id="clip0_24_2">
<rect width="1748" height="271" fill="white"/>
</clipPath>
</defs>
</svg>
